HIERARCHY
ROOT SpineBase
{
  OFFSET 0.000000 0.000000 0.000000
  CHANNELS 6 Xposition Yposition Zposition Zrotation Xrotation Yrotation
  JOINT SpineMid
  {
    OFFSET -0.000000 31.816170 0.000000
    CHANNELS 3 Zrotation Xrotation Yrotation
    JOINT SpineShoulder
    {
      OFFSET -0.084717 23.506419 -0.762823
      CHANNELS 3 Zrotation Xrotation Yrotation
      JOINT Neck
      {
        OFFSET -0.031973 7.752151 -0.579438
        CHANNELS 3 Zrotation Xrotation Yrotation
        JOINT Head
        {
          OFFSET 4.442485 12.523255 1.600849
          CHANNELS 3 Zrotation Xrotation Yrotation
          End Site
          {
            OFFSET 0 0 0
          }
        }
      }
      JOINT ShoulderLeft
      {
        OFFSET -7.912996 -4.089477 -12.671928
        CHANNELS 3 Zrotation Xrotation Yrotation
        JOINT ElbowLeft
        {
          OFFSET -3.177081 -22.552070 -5.275224
          CHANNELS 3 Zrotation Xrotation Yrotation
          JOINT WristLeft
          {
            OFFSET 5.960918 -24.802257 -2.662746
            CHANNELS 3 Zrotation Xrotation Yrotation
            JOINT HandLeft
            {
              OFFSET 0.440462 -4.651350 1.367044
              CHANNELS 3 Zrotation Xrotation Yrotation
              JOINT HandTipLeft
              {
                OFFSET 1.066448 -6.207896 0.850764
                CHANNELS 3 Zrotation Xrotation Yrotation
                End Site
                {
                  OFFSET 0 0 0
                }
              }
              JOINT ThumbLeft
              {
                OFFSET -4.597944 -1.357127 -0.296706
                CHANNELS 3 Zrotation Xrotation Yrotation
                End Site
                {
                  OFFSET 0 0 0
                }
              }
            }
          }
        }
      }
      JOINT ShoulderRight
      {
        OFFSET 11.438521 -9.249251 5.423714
        CHANNELS 3 Zrotation Xrotation Yrotation
        JOINT ElbowRight
        {
          OFFSET 1.354986 -26.287865 10.979409
          CHANNELS 3 Zrotation Xrotation Yrotation
          JOINT WristRight
          {
            OFFSET 1.071000 -21.526224 -1.604073
            CHANNELS 3 Zrotation Xrotation Yrotation
            JOINT HandRight
            {
              OFFSET -1.214730 -3.193261 1.589337
              CHANNELS 3 Zrotation Xrotation Yrotation
              JOINT HandTipRight
              {
                OFFSET -0.246814 -2.845950 0.278393
                CHANNELS 3 Zrotation Xrotation Yrotation
                End Site
                {
                  OFFSET 0 0 0
                }
              }
              JOINT ThumbRight
              {
                OFFSET -2.247647 1.211042 -2.335253
                CHANNELS 3 Zrotation Xrotation Yrotation
                End Site
                {
                  OFFSET 0 0 0
                }
              }
            }
          }
        }
      }
    }
  }
  JOINT HipLeft
  {
    OFFSET -5.341253 1.913933 -7.916182
    CHANNELS 3 Zrotation Xrotation Yrotation
    JOINT KneeLeft
    {
      OFFSET -4.855976 -24.219077 -2.326392
      CHANNELS 3 Zrotation Xrotation Yrotation
      JOINT AnkleLeft
      {
        OFFSET -6.423963 -34.963320 4.806983
        CHANNELS 3 Zrotation Xrotation Yrotation
        JOINT FootLeft
        {
          OFFSET 1.859968 -7.875062 -6.751460
          CHANNELS 3 Zrotation Xrotation Yrotation
          End Site
          {
            OFFSET 0 0 0
          }
        }
      }
    }
  }
  JOINT HipRight
  {
    OFFSET 5.655530 -0.638736 0.775803
    CHANNELS 3 Zrotation Xrotation Yrotation
    JOINT KneeRight
    {
      OFFSET -4.208150 -25.843770 9.372457
      CHANNELS 3 Zrotation Xrotation Yrotation
      JOINT AnkleRight
      {
        OFFSET -8.378948 -32.061558 9.451801
        CHANNELS 3 Zrotation Xrotation Yrotation
        JOINT FootRight
        {
          OFFSET 4.490166 -7.659512 -2.011226
          CHANNELS 3 Zrotation Xrotation Yrotation
          End Site
          {
            OFFSET 0 0 0
          }
        }
      }
    }
  }
}
MOTION
Frames: 12
Frame Time: 0.033333
-18.091865 66.963125 337.027871 0.000000 0.000000 -38.323255 -0.000000 0.000000 38.323255 -0.000000 0.000000 0.000000 -0.000000 0.000000 0.000000 0.000000 0.000000 0.000000 -0.000000 0.000000 0.000000 -0.000000 0.000000 0.000000 -0.000000 0.000000 0.000000 -0.000000 0.000000 0.000000 0.000000 0.000000 0.000000 0.000000 0.000000 0.000000 -0.000000 0.000000 0.000000 -0.000000 0.000000 0.000000 -0.000000 0.000000 0.000000 -0.000000 0.000000 0.000000 0.000000 0.000000 0.000000 0.000000 0.000000 0.000000 -0.000000 0.000000 38.323255 -0.000000 0.000000 0.000000 -0.000000 0.000000 0.000000 0.000000 0.000000 0.000000 -0.000000 0.000000 38.323255 -0.000000 0.000000 0.000000 -0.000000 0.000000 0.000000 0.000000 0.000000 0.000000
-18.435986 66.959318 337.001707 -0.340886 0.092167 -38.341980 0.324541 0.139181 38.341860 -0.000000 0.000000 0.000000 -0.000000 0.000000 0.000000 0.000000 0.000000 0.000000 0.971902 -0.657998 -0.129395 -0.973450 0.655707 0.140547 -1.316836 -1.483181 -0.543064 3.690185 0.252040 0.580673 0.000000 0.000000 0.000000 0.000000 0.000000 0.000000 -0.000000 0.000000 0.000000 -0.775637 -1.929261 -0.051339 4.807013 3.921822 1.091630 -1.530900 -1.292212 -1.080024 0.000000 0.000000 0.000000 0.000000 0.000000 0.000000 0.324541 0.139181 38.341860 -0.000000 0.000000 0.000000 -0.000000 0.000000 0.000000 0.000000 0.000000 0.000000 0.324541 0.139181 38.341860 -0.000000 0.000000 0.000000 0.280930 1.064587 0.545605 0.000000 0.000000 0.000000
-18.720903 66.950980 336.993039 -0.614533 0.152747 -38.403818 0.576468 0.262048 38.403319 -0.000000 0.000000 0.000000 -0.000000 0.000000 0.000000 0.000000 0.000000 0.000000 1.731107 -1.146976 -0.227056 -0.679692 0.625414 0.007946 -3.503921 -2.002836 -0.745470 6.600231 0.302619 0.969056 0.000000 0.000000 0.000000 0.000000 0.000000 0.000000 -0.000000 0.000000 0.000000 -1.347712 -3.489827 -0.114637 9.452403 7.859642 1.670144 -3.720727 -2.978994 -2.129357 0.000000 0.000000 0.000000 0.000000 0.000000 0.000000 1.664200 0.874809 38.313072 -1.233296 0.193641 0.081540 -0.408478 0.891096 0.560573 0.000000 0.000000 0.000000 1.569099 0.939363 38.842202 -1.197878 0.095096 -0.448296 0.467852 1.953361 1.007440 0.000000 0.000000 0.000000
-18.946615 66.938109 337.001867 -0.820750 0.181681 -38.509092 0.755370 0.368863 38.507962 -0.000000 0.000000 0.000000 -0.000000 0.000000 0.000000 0.000000 0.000000 0.000000 2.297610 -1.480128 -0.301061 -0.821499 0.705122 -0.011151 -4.912376 -2.380384 -0.997628 8.871618 0.122480 1.244586 0.000000 0.000000 0.000000 0.000000 0.000000 0.000000 -0.000000 0.000000 0.000000 -1.711605 -4.673353 -0.175602 13.711958 11.728539 1.698081 -6.086195 -4.981038 -3.031437 0.000000 0.000000 0.000000 0.000000 0.000000 0.000000 2.205791 1.216985 38.375725 -1.663436 0.235770 0.115585 -0.543453 1.234599 0.757220 0.000000 0.000000 0.000000 2.097792 1.288564 39.097212 -1.621677 0.133035 -0.606785 0.566911 2.670984 1.391372 0.000000 0.000000 0.000000
-19.113122 66.920706 337.028190 -0.959411 0.178941 -38.657764 0.163371 -0.000270 38.631880 0.832040 -0.076290 0.027279 0.888757 -0.344049 0.011139 0.000000 0.000000 0.000000 2.686020 -1.666962 -0.356865 -0.867726 0.651233 -0.039186 -6.104758 -2.396795 -1.174265 10.605193 -0.306119 1.457100 0.000000 0.000000 0.000000 0.000000 0.000000 0.000000 -0.000000 0.000000 0.000000 -1.864048 -5.475817 -0.223860 17.276704 15.412804 1.173197 -8.142078 -7.224366 -3.615111 0.000000 0.000000 0.000000 0.000000 0.000000 0.000000 2.552500 1.496210 38.486767 -1.968900 0.241630 0.144322 -0.632514 1.513014 0.898973 0.000000 0.000000 0.000000 2.452522 1.554481 39.350812 -1.924695 0.162829 -0.720242 0.582833 3.221664 1.701905 0.000000 0.000000 0.000000
-19.220425 66.898771 337.072009 -1.030453 0.144526 -38.849441 0.130683 0.001912 38.820275 0.927511 -0.063557 0.030384 1.046506 -0.451049 0.030460 0.000000 0.000000 0.000000 2.906297 -1.713597 -0.397880 -0.837452 0.475191 -0.072011 -7.088931 -2.074879 -1.279595 11.870525 -0.998937 1.635494 0.000000 0.000000 0.000000 0.000000 0.000000 0.000000 -0.000000 0.000000 0.000000 -1.803033 -5.895537 -0.253235 19.767871 18.779860 0.144723 -9.377969 -9.620980 -3.650167 0.000000 0.000000 0.000000 0.000000 0.000000 0.000000 2.704015 1.711846 38.647621 -2.149611 0.211364 0.167434 -0.675943 1.728134 0.986486 0.000000 0.000000 0.000000 2.632272 1.735005 39.603718 -2.105299 0.183602 -0.788200 0.519032 3.608913 1.942268 0.000000 0.000000 0.000000
-19.227555 66.868805 337.123530 -0.985309 0.071498 -39.104153 0.045063 0.003814 39.073973 0.947959 -0.045529 0.030975 1.214197 -0.678698 0.093159 0.000000 0.000000 0.000000 2.683977 -1.012115 -0.464121 -0.538736 -0.656640 -0.123194 -7.059456 1.515814 -0.658787 12.383039 -5.537709 1.780022 0.000000 0.000000 0.000000 0.000000 0.000000 0.000000 -0.000000 0.000000 0.000000 -1.427030 -6.024559 -0.269998 21.929806 25.956574 -3.835449 -8.228034 -14.324432 -1.261845 0.000000 0.000000 0.000000 0.000000 0.000000 0.000000 2.579264 1.791414 38.890471 -1.606372 -0.448718 0.363942 -1.232009 2.492361 0.868436 0.000000 0.000000 0.000000 2.547603 1.713297 39.852888 -2.069031 0.233314 -0.782475 0.181750 3.730981 2.114021 0.000000 0.000000 0.000000
-19.194885 66.826293 337.241349 -0.891676 -0.084560 -39.456011 -0.083457 0.027968 39.425500 0.938336 0.010428 0.030403 1.368455 -0.788292 0.114705 0.000000 0.000000 0.000000 2.604124 -0.797581 -0.481073 -0.499416 -1.035498 -0.141247 -7.826064 1.827259 -0.799576 13.515986 -6.441789 1.990759 0.000000 0.000000 0.000000 0.000000 0.000000 0.000000 -0.000000 0.000000 0.000000 -0.715602 -5.962616 -0.282054 20.023187 33.240720 -9.348536 -4.310530 -24.414217 4.940950 0.000000 0.000000 0.000000 0.000000 0.000000 0.000000 2.188898 1.924031 39.220169 -1.491526 -0.719227 0.401722 -1.179223 2.524120 0.803670 0.000000 0.000000 0.000000 2.243562 1.774866 40.156299 -1.966298 0.164324 -0.735419 -0.905999 5.932412 3.730862 0.000000 0.000000 0.000000
-19.124559 66.790164 337.341459 -0.759395 -0.207107 -39.737584 -0.197105 0.019117 39.708022 0.898710 0.066863 0.028882 1.418361 -0.898841 0.149474 0.000000 0.000000 0.000000 2.460001 -0.610564 -0.478431 -0.395205 -1.267360 -0.153019 -8.505215 1.997616 -0.959014 12.078747 -6.657459 1.784837 0.000000 0.000000 0.000000 0.000000 0.000000 0.000000 -0.000000 0.000000 0.000000 0.645135 -4.733523 -0.257773 7.210115 25.619434 -6.715040 3.048887 -16.304343 7.194497 0.000000 0.000000 0.000000 0.000000 0.000000 0.000000 1.735368 1.912325 39.500715 -1.297737 -0.942357 0.418625 -0.964210 2.653644 0.644856 0.000000 0.000000 0.000000 1.929573 1.676185 40.380998 -1.793826 0.172104 -0.674569 -0.844374 2.660306 1.797789 0.000000 0.000000 0.000000
-19.021851 66.783849 337.403565 -0.597415 -0.277825 -39.791421 -0.293590 -0.019800 39.763902 0.835625 0.105542 0.026729 1.406037 -0.997827 0.187503 0.000000 0.000000 0.000000 2.247090 -0.552444 -0.438734 -0.257488 -1.251839 -0.171703 -8.473263 1.677521 -1.044477 10.764876 -5.173748 1.701793 0.000000 0.000000 0.000000 0.000000 0.000000 0.000000 -0.000000 0.000000 0.000000 0.669983 -3.945172 -0.223722 9.819234 27.443097 -7.545203 -0.128701 -17.270254 6.235518 0.000000 0.000000 0.000000 0.000000 0.000000 0.000000 1.273384 1.763668 39.569890 -1.026047 -1.092698 0.418125 -0.874950 2.688149 0.573986 0.000000 0.000000 0.000000 1.597510 1.441179 40.360365 -1.739873 0.969963 -0.847592 0.200917 -0.758639 0.258440 0.000000 0.000000 0.000000
-18.951262 66.793650 337.435265 -0.478545 -0.308573 -39.679140 -0.360083 -0.070719 39.652762 0.800768 0.133459 0.025535 1.277608 -1.022127 0.211750 0.000000 0.000000 0.000000 1.794562 -0.514593 -0.340359 0.051646 -1.196660 -0.240021 -8.429472 0.829901 -1.237238 9.173650 -2.947947 1.652301 0.000000 0.000000 0.000000 0.000000 0.000000 0.000000 -0.000000 0.000000 0.000000 0.547681 -2.491465 -0.153092 13.436995 24.552026 -5.495606 -3.029866 -16.255879 3.424363 0.000000 0.000000 0.000000 0.000000 0.000000 0.000000 0.947077 1.641348 39.466932 -0.810398 -1.156993 0.411925 -0.896092 2.490375 0.550934 0.000000 0.000000 0.000000 1.379534 1.247016 40.196406 -1.519955 1.180078 -0.823590 1.398384 -1.381772 -0.271254 0.000000 0.000000 0.000000
-18.900296 66.823737 337.429940 -0.394093 -0.290049 -39.508637 0.119534 0.474498 39.507145 -0.000000 0.000000 0.000000 1.103543 -0.964971 0.211494 0.000000 0.000000 0.000000 1.278581 -0.679280 -0.196394 0.420503 -0.893619 -0.344612 -8.227704 -0.367797 -1.449799 8.047738 -0.481636 1.715430 0.000000 0.000000 0.000000 0.000000 0.000000 0.000000 -0.000000 0.000000 0.000000 0.244340 -2.470829 -0.136093 18.428188 32.495897 -10.056826 -1.020924 -26.793001 8.085271 0.000000 0.000000 0.000000 0.000000 0.000000 0.000000 0.755979 1.465683 39.316154 -0.666563 -1.103137 0.380666 -0.756984 2.121385 0.400135 0.000000 0.000000 0.000000 1.269493 1.045868 39.993214 -1.396314 1.355723 -0.818228 2.791780 -1.801342 -0.735264 0.000000 0.000000 0.000000
